<?xml version="1.0" standalone="no"?>
<!DOCTYPE svg PUBLIC "-//W3C//DTD SVG 20010904//EN"
 "http://www.w3.org/TR/2001/REC-SVG-20010904/DTD/svg10.dtd">
<svg version="1.0" xmlns="http://www.w3.org/2000/svg"
 width="199.000000pt" height="199.000000pt" viewBox="0 0 199.000000 199.000000"
 preserveAspectRatio="xMidYMid meet">
<metadata>
Created by potrace 1.11, written by Peter Selinger 2001-2013
</metadata>
<g transform="translate(0.000000,199.000000) scale(0.100000,-0.100000)"
fill="#000000" stroke="none">
<path d="M145 1933 c-44 -23 -74 -53 -96 -95 -18 -34 -19 -62 -19 -365 l0
-328 31 54 c46 80 110 138 197 179 l77 36 256 4 256 4 29 -25 29 -25 3 -418
c2 -331 0 -419 -10 -426 -15 -9 -129 -11 -152 -2 -13 5 -16 25 -16 110 l0 104
-275 0 -275 0 0 -104 c0 -119 2 -116 -91 -116 l-59 0 0 -170 c0 -138 3 -177
16 -203 23 -45 53 -76 96 -98 36 -18 70 -19 845 -19 768 0 810 1 849 19 45 21
85 67 103 120 14 42 16 527 2 536 -5 3 -12 -3 -16 -14 -8 -27 -94 -105 -142
-130 -68 -34 -153 -43 -411 -39 -236 3 -242 4 -264 26 l-23 23 0 400 0 401 29
25 29 24 281 -3 c248 -3 286 -6 326 -22 60 -25 130 -78 159 -121 13 -19 27
-35 32 -35 13 0 11 517 -2 565 -15 55 -56 105 -104 126 -38 17 -87 19 -850 18
-719 0 -813 -2 -840 -16z"/>
<path d="M418 1250 c-155 -26 -238 -120 -238 -270 l0 -70 275 0 275 0 0 175 0
175 -132 -1 c-73 -1 -154 -5 -180 -9z"/>
<path d="M1260 976 l0 -286 198 0 c185 0 201 1 242 23 24 12 58 39 74 60 31
38 31 40 35 175 4 155 -5 197 -50 242 -57 57 -85 63 -301 68 l-198 4 0 -286z"/>
</g>
</svg>
